<svg xmlns="http://www.w3.org/2000/svg" viewBox="0 0 180 180" width="180" height="180">
  <!-- 金色の背景 -->
  <rect width="180" height="180" rx="40" fill="url(#goldGradient)"/>
  
  <!-- グラデーション定義 -->
  <defs>
    <linearGradient id="goldGradient" x1="0%" y1="0%" x2="100%" y2="100%">
      <stop offset="0%" style="stop-color:#b8860b;stop-opacity:1" />
      <stop offset="35%" style="stop-color:#daa520;stop-opacity:1" />
      <stop offset="70%" style="stop-color:#f4e4bc;stop-opacity:1" />
      <stop offset="100%" style="stop-color:#fff8e7;stop-opacity:1" />
    </linearGradient>
    <linearGradient id="kimonoGradient" x1="0%" y1="0%" x2="100%" y2="100%">
      <stop offset="0%" style="stop-color:#8b4513;stop-opacity:1" />
      <stop offset="50%" style="stop-color:#a0522d;stop-opacity:1" />
      <stop offset="100%" style="stop-color:#cd853f;stop-opacity:1" />
    </linearGradient>
    <linearGradient id="whiteFade" x1="0%" y1="0%" x2="100%" y2="100%">
      <stop offset="0%" style="stop-color:#ffffff;stop-opacity:0.9" />
      <stop offset="100%" style="stop-color:#fff8e7;stop-opacity:0.7" />
    </linearGradient>
  </defs>
  
  <!-- 装飾的な背景パターン -->
  <circle cx="45" cy="45" r="8" fill="rgba(255,255,255,0.1)"/>
  <circle cx="135" cy="45" r="6" fill="rgba(255,255,255,0.08)"/>
  <circle cx="45" cy="135" r="5" fill="rgba(255,255,255,0.06)"/>
  <circle cx="135" cy="135" r="7" fill="rgba(255,255,255,0.09)"/>
  
  <!-- 着物のシルエット（大きめ） -->
  <g transform="translate(90,90)">
    <!-- 着物本体 -->
    <path d="M-35,-50 L-25,-50 L-25,-10 L-35,40 L-45,40 L-45,30 L-55,30 L-55,10 L-45,10 L-45,-40 L-35,-40 Z" 
          fill="url(#kimonoGradient)" opacity="0.85"/>
    <path d="M35,-50 L25,-50 L25,-10 L35,40 L45,40 L45,30 L55,30 L55,10 L45,10 L45,-40 L35,-40 Z" 
          fill="url(#kimonoGradient)" opacity="0.85"/>
    
    <!-- 着物の中央部分 -->
    <rect x="-25" y="-50" width="50" height="90" fill="url(#kimonoGradient)" opacity="0.9"/>
    
    <!-- 帯（大きめ） -->
    <rect x="-45" y="-10" width="90" height="15" fill="#8b4513" opacity="0.9"/>
    <rect x="-40" y="-7" width="80" height="9" fill="#daa520" opacity="0.8"/>
    
    <!-- 帯の装飾 -->
    <rect x="-35" y="-5" width="70" height="3" fill="url(#whiteFade)" opacity="0.6"/>
    <circle cx="0" cy="-2" r="4" fill="#fff8e7" opacity="0.8"/>
    
    <!-- 襟 -->
    <path d="M-25,-50 L-15,-40 L15,-40 L25,-50 L15,-50 L0,-40 L-15,-50 Z" 
          fill="#fff8e7" opacity="0.9"/>
    
    <!-- 袖の装飾 -->
    <path d="M-45,-35 L-35,-35 L-35,-25 L-45,-25 Z" fill="url(#whiteFade)" opacity="0.7"/>
    <path d="M45,-35 L35,-35 L35,-25 L45,-25 Z" fill="url(#whiteFade)" opacity="0.7"/>
    
    <!-- 装飾的な花模様（大きめ） -->
    <circle cx="-15" cy="-30" r="4" fill="#fff8e7" opacity="0.7"/>
    <circle cx="20" cy="-25" r="3.5" fill="#fff8e7" opacity="0.6"/>
    <circle cx="-10" cy="10" r="3" fill="#fff8e7" opacity="0.5"/>
    <circle cx="15" cy="15" r="2.5" fill="#fff8e7" opacity="0.6"/>
    
    <!-- 桜の花びら -->
    <g transform="translate(-10,-35)">
      <path d="M0,0 L2,-3 L4,0 L2,3 Z" fill="#fff8e7" opacity="0.8"/>
      <path d="M-3,-2 L0,-4 L3,-2 L0,1 Z" fill="#fff8e7" opacity="0.7"/>
    </g>
    
    <g transform="translate(25,-20)">
      <path d="M0,0 L1.5,-2 L3,0 L1.5,2 Z" fill="#fff8e7" opacity="0.7"/>
      <path d="M-2,-1 L0,-3 L2,-1 L0,1 Z" fill="#fff8e7" opacity="0.6"/>
    </g>
  </g>
  
  <!-- 外枠の装飾 -->
  <rect x="0" y="0" width="180" height="180" rx="40" fill="none" 
        stroke="rgba(255,255,255,0.15)" stroke-width="2"/>
</svg>