<svg xmlns="http://www.w3.org/2000/svg" viewBox="0 0 32 32" width="32" height="32">
  <!-- 金色の背景 -->
  <rect width="32" height="32" rx="6" fill="url(#goldGradient)"/>
  
  <!-- グラデーション定義 -->
  <defs>
    <linearGradient id="goldGradient" x1="0%" y1="0%" x2="100%" y2="100%">
      <stop offset="0%" style="stop-color:#b8860b;stop-opacity:1" />
      <stop offset="35%" style="stop-color:#daa520;stop-opacity:1" />
      <stop offset="70%" style="stop-color:#f4e4bc;stop-opacity:1" />
      <stop offset="100%" style="stop-color:#fff8e7;stop-opacity:1" />
    </linearGradient>
    <linearGradient id="kimonoGradient" x1="0%" y1="0%" x2="100%" y2="100%">
      <stop offset="0%" style="stop-color:#8b4513;stop-opacity:1" />
      <stop offset="50%" style="stop-color:#a0522d;stop-opacity:1" />
      <stop offset="100%" style="stop-color:#cd853f;stop-opacity:1" />
    </linearGradient>
  </defs>
  
  <!-- 着物のシルエット -->
  <g transform="translate(16,16)">
    <!-- 着物本体 -->
    <path d="M-6,-10 L-4,-10 L-4,-2 L-6,8 L-8,8 L-8,6 L-10,6 L-10,2 L-8,2 L-8,-8 L-6,-8 Z" 
          fill="url(#kimonoGradient)" opacity="0.8"/>
    <path d="M6,-10 L4,-10 L4,-2 L6,8 L8,8 L8,6 L10,6 L10,2 L8,2 L8,-8 L6,-8 Z" 
          fill="url(#kimonoGradient)" opacity="0.8"/>
    
    <!-- 着物の中央部分 -->
    <rect x="-4" y="-10" width="8" height="18" fill="url(#kimonoGradient)" opacity="0.9"/>
    
    <!-- 帯 -->
    <rect x="-8" y="-2" width="16" height="3" fill="#8b4513" opacity="0.9"/>
    <rect x="-7" y="-1.5" width="14" height="2" fill="#daa520" opacity="0.7"/>
    
    <!-- 襟 -->
    <path d="M-4,-10 L-2,-8 L2,-8 L4,-10 L2,-10 L0,-8 L-2,-10 Z" 
          fill="#fff8e7" opacity="0.8"/>
    
    <!-- 装飾的な花模様 -->
    <circle cx="-2" cy="-6" r="1" fill="#fff8e7" opacity="0.6"/>
    <circle cx="3" cy="-4" r="0.8" fill="#fff8e7" opacity="0.6"/>
    <circle cx="-1" cy="2" r="0.6" fill="#fff8e7" opacity="0.5"/>
  </g>
</svg>