<svg xmlns="http://www.w3.org/2000/svg" viewBox="0 0 192 192" width="192" height="192">
  <!-- 金色の背景 -->
  <rect width="192" height="192" rx="38" fill="url(#goldGradient)"/>
  
  <!-- グラデーション定義 -->
  <defs>
    <linearGradient id="goldGradient" x1="0%" y1="0%" x2="100%" y2="100%">
      <stop offset="0%" style="stop-color:#b8860b;stop-opacity:1" />
      <stop offset="35%" style="stop-color:#daa520;stop-opacity:1" />
      <stop offset="70%" style="stop-color:#f4e4bc;stop-opacity:1" />
      <stop offset="100%" style="stop-color:#fff8e7;stop-opacity:1" />
    </linearGradient>
    <linearGradient id="kimonoGradient" x1="0%" y1="0%" x2="100%" y2="100%">
      <stop offset="0%" style="stop-color:#8b4513;stop-opacity:1" />
      <stop offset="50%" style="stop-color:#a0522d;stop-opacity:1" />
      <stop offset="100%" style="stop-color:#cd853f;stop-opacity:1" />
    </linearGradient>
    <linearGradient id="whiteFade" x1="0%" y1="0%" x2="100%" y2="100%">
      <stop offset="0%" style="stop-color:#ffffff;stop-opacity:0.9" />
      <stop offset="100%" style="stop-color:#fff8e7;stop-opacity:0.7" />
    </linearGradient>
  </defs>
  
  <!-- 装飾的な背景パターン -->
  <circle cx="48" cy="48" r="9" fill="rgba(255,255,255,0.1)"/>
  <circle cx="144" cy="48" r="7" fill="rgba(255,255,255,0.08)"/>
  <circle cx="48" cy="144" r="6" fill="rgba(255,255,255,0.06)"/>
  <circle cx="144" cy="144" r="8" fill="rgba(255,255,255,0.09)"/>
  
  <!-- 着物のシルエット -->
  <g transform="translate(96,96)">
    <!-- 着物本体 -->
    <path d="M-38,-54 L-27,-54 L-27,-11 L-38,43 L-48,43 L-48,32 L-58,32 L-58,11 L-48,11 L-48,-43 L-38,-43 Z" 
          fill="url(#kimonoGradient)" opacity="0.85"/>
    <path d="M38,-54 L27,-54 L27,-11 L38,43 L48,43 L48,32 L58,32 L58,11 L48,11 L48,-43 L38,-43 Z" 
          fill="url(#kimonoGradient)" opacity="0.85"/>
    
    <!-- 着物の中央部分 -->
    <rect x="-27" y="-54" width="54" height="97" fill="url(#kimonoGradient)" opacity="0.9"/>
    
    <!-- 帯 -->
    <rect x="-48" y="-11" width="96" height="16" fill="#8b4513" opacity="0.9"/>
    <rect x="-43" y="-8" width="86" height="10" fill="#daa520" opacity="0.8"/>
    
    <!-- 帯の装飾 -->
    <rect x="-38" y="-5" width="76" height="4" fill="url(#whiteFade)" opacity="0.6"/>
    <circle cx="0" cy="-2" r="5" fill="#fff8e7" opacity="0.8"/>
    
    <!-- 襟 -->
    <path d="M-27,-54 L-16,-43 L16,-43 L27,-54 L16,-54 L0,-43 L-16,-54 Z" 
          fill="#fff8e7" opacity="0.9"/>
    
    <!-- 袖の装飾 -->
    <path d="M-48,-38 L-38,-38 L-38,-27 L-48,-27 Z" fill="url(#whiteFade)" opacity="0.7"/>
    <path d="M48,-38 L38,-38 L38,-27 L48,-27 Z" fill="url(#whiteFade)" opacity="0.7"/>
    
    <!-- 装飾的な花模様 -->
    <circle cx="-16" cy="-32" r="4.5" fill="#fff8e7" opacity="0.7"/>
    <circle cx="22" cy="-27" r="4" fill="#fff8e7" opacity="0.6"/>
    <circle cx="-11" cy="11" r="3.5" fill="#fff8e7" opacity="0.5"/>
    <circle cx="16" cy="16" r="3" fill="#fff8e7" opacity="0.6"/>
    
    <!-- 桜の花びら -->
    <g transform="translate(-11,-38)">
      <path d="M0,0 L2.2,-3.3 L4.4,0 L2.2,3.3 Z" fill="#fff8e7" opacity="0.8"/>
      <path d="M-3.3,-2.2 L0,-4.4 L3.3,-2.2 L0,1.1 Z" fill="#fff8e7" opacity="0.7"/>
    </g>
    
    <g transform="translate(27,-22)">
      <path d="M0,0 L1.6,-2.2 L3.2,0 L1.6,2.2 Z" fill="#fff8e7" opacity="0.7"/>
      <path d="M-2.2,-1.1 L0,-3.2 L2.2,-1.1 L0,1.1 Z" fill="#fff8e7" opacity="0.6"/>
    </g>
  </g>
  
  <!-- 外枠の装飾 -->
  <rect x="0" y="0" width="192" height="192" rx="38" fill="none" 
        stroke="rgba(255,255,255,0.15)" stroke-width="3"/>
</svg>